<?xml version="1.0" encoding="UTF-8"?><svg id="a" xmlns="http://www.w3.org/2000/svg" viewBox="0 0 562.07 304.32"><path d="M36.63,111.09V0H0v131.58s41.96,172.74,41.96,172.74h192.13l46.94-193.23H36.63ZM70.76,267.68l-29.15-119.97h192.83l-29.15,119.97H70.76Z" style="fill:#190d1f;"/><polygon points="146.64 175.55 129.41 175.55 114.49 184.16 105.87 199.08 105.87 216.31 114.49 231.24 129.41 239.85 146.64 239.85 161.56 231.24 170.18 216.31 170.18 199.08 161.56 184.16 146.64 175.55" style="fill:#190d1f;"/><path d="M281.04,111.09l46.94,193.23h192.13s41.97-172.74,41.97-172.74V0h-36.63s0,111.09,0,111.09h-244.4ZM356.78,267.68l-29.15-119.97h192.83s-29.15,119.97-29.15,119.97h-134.53Z" style="fill:#190d1f;"/><rect x="415.43" y="175.67" width="17.23" height="64.3" transform="translate(631.87 -216.22) rotate(90)" style="fill:#190d1f;"/><rect x="415.43" y="175.67" width="17.23" height="64.3" transform="translate(-47.1 239.87) rotate(-30)" style="fill:#190d1f;"/><rect x="415.43" y="175.67" width="17.23" height="64.3" transform="translate(687.36 599.83) rotate(-150)" style="fill:#190d1f;"/></svg>
