<?xml version="1.0" encoding="UTF-8"?><svg id="a" xmlns="http://www.w3.org/2000/svg" viewBox="0 0 140.5 76.1"><circle cx="34.6" cy="52" r="8.3" style="fill:#190d1f;"/><path d="M9.2,27.8V0H0v32.9l10.5,43.2h48l11.7-48.3H9.2ZM17.7,67l-7.3-30h48.2l-7.3,30H17.7Z" style="fill:#190d1f;"/><path d="M70.3,27.8l11.7,48.3h48l10.5-43.2V0h-9.2v27.8h-61.1.1ZM89.3,67l-7.3-30h48.2l-7.3,30s-33.6,0-33.6,0Z" style="fill:#190d1f;"/><path d="M113.7,49.9l-2-1.2v-2.4c0-1.8-2-3-3.6-2.1l-2.1,1.2-2.1-1.2c-1.6-.9-3.6.2-3.6,2.1v2.4l-2,1.2c-1.6.9-1.6,3.2,0,4.1l2,1.2v2.4c0,1.8,2,3,3.6,2.1l2.1-1.2,2.1,1.2c1.6.9,3.6-.2,3.6-2.1v-2.4l2-1.2c1.6-.9,1.6-3.2,0-4.1Z" style="fill:#190d1f;"/></svg>