<?xml version="1.0" encoding="UTF-8"?><svg id="a" xmlns="http://www.w3.org/2000/svg" viewBox="0 0 320 285.87"><path d="M69.36,19.15c36.69,27.81,76.15,84.19,90.64,114.44,14.49-30.25,53.95-86.63,90.64-114.44,26.47-20.06,69.36-35.59,69.36,13.81,0,9.86-5.6,82.88-8.89,94.73-11.42,41.21-53.05,51.72-90.07,45.36,64.72,11.12,81.18,47.95,45.63,84.79-80,82.87-106.67-44.33-106.67-44.33,0,0-26.67,127.21-106.67,44.33-35.56-36.83-19.09-73.67,45.63-84.79-37.03,6.36-78.65-4.15-90.07-45.36C5.6,115.83,0,42.82,0,32.96,0-16.44,42.89-.92,69.36,19.15h0Z" style="fill:#e4f5fa;"/></svg>